<svg xmlns="http://www.w3.org/2000/svg" width="1040" height="150" viewBox="0 0 1040 150" role="img" aria-labelledby="title desc">
  <title id="title">Claude statusLine preview</title>
  <desc id="desc">A two-line Claude statusLine preview showing context remaining and colored AI Battery bars.</desc>
  <rect width="1040" height="150" rx="8" fill="#111318"/>
  <rect x="1" y="1" width="1038" height="148" rx="7" fill="none" stroke="#2a2f3a"/>
  <defs>
    <pattern id="greenShade" width="4" height="4" patternUnits="userSpaceOnUse">
      <rect width="4" height="4" fill="#18251d"/>
      <circle cx="1" cy="1" r="0.7" fill="#315c3d"/>
      <circle cx="3" cy="3" r="0.7" fill="#315c3d"/>
    </pattern>
  </defs>
  <g font-family="ui-monospace, SFMono-Regular, Menlo, Consolas, 'Liberation Mono', monospace" font-size="18">
    <text x="24" y="54" fill="#8b949e">Opus high · ~/Projects · main</text>
    <text x="828" y="54" fill="#8b949e">83% context left</text>
    <text x="24" y="105" fill="#8b949e">Codex</text>
    <g shape-rendering="crispEdges">
      <rect x="92" y="88" width="100" height="18" fill="url(#greenShade)"/>
      <rect x="92" y="88" width="70" height="18" fill="#4ade80"/>
    </g>
    <text x="204" y="105" fill="#8b949e">71%</text>
    <text x="250" y="105" fill="#8b949e">│</text>
    <text x="272" y="105" fill="#8b949e">5h 00:47</text>
    <text x="365" y="105" fill="#8b949e">│</text>
    <text x="388" y="105" fill="#8b949e">7d 90%</text>
    <text x="500" y="105" fill="#f2f2f2">Claude</text>
    <g shape-rendering="crispEdges">
      <rect x="585" y="88" width="100" height="18" fill="url(#greenShade)"/>
      <rect x="585" y="88" width="80" height="18" fill="#4ade80"/>
    </g>
    <text x="697" y="105" fill="#f2f2f2">76%</text>
    <text x="743" y="105" fill="#8b949e">│</text>
    <text x="765" y="105" fill="#f2f2f2">5h 00:47</text>
    <text x="858" y="105" fill="#8b949e">│</text>
    <text x="881" y="105" fill="#f2f2f2">7d 59%</text>
  </g>
</svg>
